<svg xmlns="http://www.w3.org/2000/svg" xmlns:xlink="http://www.w3.org/1999/xlink" width="1181.239" height="313.439" viewBox="0 0 1181.239 313.439">
  <defs>
    <clipPath id="clip-path">
      <path id="Path_36" data-name="Path 36" d="M757.362-222.077c125.054,13.8,111.181-65.339,140.164-108.13q26.353-38.907,102.783-65.023h0a44.5,44.5,0,0,1,30.665.693Q1298.124-289.549,1103.4-257.5c-200.036,32.924-208.149,165.357-312.37,139.09S632.308-235.881,757.362-222.077Z" fill="none" clip-rule="evenodd"/>
    </clipPath>
    <clipPath id="clip-path-2">
      <path id="Path_35" data-name="Path 35" d="M-379,2357H1541V-357H-379Z" fill="none"/>
    </clipPath>
    <clipPath id="clip-path-3">
      <path id="Path_39" data-name="Path 39" d="M109.338-95.387c-39.836-17.954-46.5-3-60.669,8h0a15.244,15.244,0,0,1-21.39-2.691,15.244,15.244,0,0,1-3.18-8.509q-.733-13.282-14.019-26.766C-20.5-156.387,77.722-153,109.338-133.171S149.174-77.433,109.338-95.387Z" fill="none" clip-rule="evenodd"/>
    </clipPath>
  </defs>
  <g id="Group_209" data-name="Group 209" transform="translate(19865.746 1777)">
    <g id="Group_206" data-name="Group 206" transform="translate(-19870 -1379.379)" clip-path="url(#clip-path)">
      <g id="Group_205" data-name="Group 205" clip-path="url(#clip-path-2)">
        <path id="Path_34" data-name="Path 34" d="M651.195-320l507.646-117.2,54.93,237.925L706.124-82.077Z" fill="rgba(253,148,78,0.1)"/>
      </g>
    </g>
    <g id="Group_208" data-name="Group 208" transform="translate(-19870 -1379.379)" clip-path="url(#clip-path-3)">
      <g id="Group_207" data-name="Group 207" clip-path="url(#clip-path-2)">
        <path id="Path_37" data-name="Path 37" d="M138.818-70.4-5.417-83.02l6.509-74.4L145.327-144.8Z" fill="rgba(1,192,136,0.1)"/>
      </g>
    </g>
  </g>
</svg>
