<svg xmlns="http://www.w3.org/2000/svg" width="16.8" height="24" viewBox="0 0 16.8 24">
  <path id="Path_80" data-name="Path 80" d="M19.4,9.2H7.4A2.407,2.407,0,0,0,5,11.6v12A2.407,2.407,0,0,0,7.4,26h12a2.407,2.407,0,0,0,2.4-2.4v-12A2.407,2.407,0,0,0,19.4,9.2Zm-4.8,15H12.2V22.4h2.4Zm0-3H12.2c0-1.8-3-3.6-3-6a4.2,4.2,0,1,1,8.4,0C17.6,17.6,14.6,19.4,14.6,21.2Zm6-13.8H6.2A1.8,1.8,0,0,1,8,5.6H18.8a1.8,1.8,0,0,1,1.8,1.8ZM19.4,3.8H7.4A1.8,1.8,0,0,1,9.2,2h8.4a1.8,1.8,0,0,1,1.8,1.8Z" transform="translate(-5 -2)" fill="#a93a8c"/>
</svg>
