<svg xmlns="http://www.w3.org/2000/svg" width="24.47" height="24.995" viewBox="0 0 24.47 24.995">
  <g id="Group" transform="translate(-0.803 -0.548)">
    <path id="Path" d="M8.378.67A12.876,12.876,0,0,0,1.309,6.845,10.4,10.4,0,0,0,.253,10.014a12.5,12.5,0,0,0,1.056,8.044A11.986,11.986,0,0,0,4.722,22.2a11.446,11.446,0,0,0,4.55,2.275,12.887,12.887,0,0,0,6.337.081A11.1,11.1,0,0,0,23.9,16.677a13.865,13.865,0,0,0,.325-6.581h-11.7V14.97h6.744a5.672,5.672,0,0,1-2.519,3.819,6.747,6.747,0,0,1-2.763,1.056,9.33,9.33,0,0,1-3.006,0,7.032,7.032,0,0,1-2.763-1.219,7.462,7.462,0,0,1-2.844-3.819,7.177,7.177,0,0,1,0-4.875A8.357,8.357,0,0,1,7.159,7.008,6.549,6.549,0,0,1,10.9,4.977a7,7,0,0,1,3.656.162,7.987,7.987,0,0,1,2.681,1.544l2.275-2.275,1.219-1.219A12.74,12.74,0,0,0,16.747.67,13.4,13.4,0,0,0,8.378.67Z" transform="translate(0.803 0.548)" fill="#fff"/>
    <path id="Path-2" data-name="Path" d="M7.069.66a12.845,12.845,0,0,1,8.369.081A11.428,11.428,0,0,1,19.419,3.26L18.2,4.479,15.925,6.754A5.966,5.966,0,0,0,13.244,5.21a7.915,7.915,0,0,0-3.656-.162A8.441,8.441,0,0,0,5.85,7.079,7.314,7.314,0,0,0,4.063,10C2.681,8.948,1.381,7.892,0,6.835A12.876,12.876,0,0,1,7.069.66Z" transform="translate(2.112 0.558)" fill="#fff"/>
    <path id="Path-3" data-name="Path" d="M.253,3.169A16.121,16.121,0,0,1,1.309,0C2.691,1.056,3.991,2.112,5.372,3.169a7.177,7.177,0,0,0,0,4.875C3.991,9.1,2.691,10.156,1.309,11.212A12.569,12.569,0,0,1,.253,3.169Z" transform="translate(0.803 7.394)" fill="#fff"/>
    <path id="Path-4" data-name="Path" d="M0,0H11.7a13.865,13.865,0,0,1-.325,6.581,11.581,11.581,0,0,1-3.169,5.2c-1.3-1.056-2.6-2.031-3.981-3.087A6.173,6.173,0,0,0,6.744,4.875H0Q0,2.438,0,0Z" transform="translate(13.244 10.644)" fill="#fff"/>
    <path id="Path-5" data-name="Path" d="M0,3.169C1.381,2.112,2.681,1.056,4.063,0A7.462,7.462,0,0,0,6.906,3.819,8.441,8.441,0,0,0,9.669,5.037a9.326,9.326,0,0,0,3.006,0,8.13,8.13,0,0,0,2.762-1.056c1.3,1.056,2.6,2.031,3.981,3.087A11.943,11.943,0,0,1,14.3,9.75a12.863,12.863,0,0,1-6.338-.081,12.623,12.623,0,0,1-4.55-2.275A15.322,15.322,0,0,1,0,3.169Z" transform="translate(2.112 15.438)" fill="#fff"/>
  </g>
</svg>
