<svg xmlns="http://www.w3.org/2000/svg" width="17.374" height="17.374" viewBox="0 0 17.374 17.374">
  <path id="Path_2" data-name="Path 2" d="M10.687,2a8.687,8.687,0,1,0,8.687,8.687A8.69,8.69,0,0,0,10.687,2ZM9.818,17.576a6.94,6.94,0,0,1-6.081-6.889A7.052,7.052,0,0,1,3.92,9.132l4.161,4.161v.869A1.743,1.743,0,0,0,9.818,15.9Zm5.994-2.207a1.723,1.723,0,0,0-1.651-1.207h-.869V11.556a.871.871,0,0,0-.869-.869H7.212V8.95H8.95a.871.871,0,0,0,.869-.869V6.344h1.737a1.743,1.743,0,0,0,1.737-1.737V4.25a6.934,6.934,0,0,1,2.519,11.119Z" transform="translate(-2 -2)" fill="#5c5f64"/>
</svg>
