<svg xmlns="http://www.w3.org/2000/svg" width="108" height="8" viewBox="0 0 108 8">
  <path id="Fill_1" data-name="Fill 1" d="M90,8a14.9,14.9,0,0,1-9.557-3.248,13.721,13.721,0,0,0-16.888,0A14.9,14.9,0,0,1,54,8a14.9,14.9,0,0,1-9.556-3.248A13.08,13.08,0,0,0,36,1.846a13.079,13.079,0,0,0-8.443,2.906A14.894,14.894,0,0,1,18,8,14.894,14.894,0,0,1,8.443,4.752,13.078,13.078,0,0,0,0,1.846V0A14.9,14.9,0,0,1,9.556,3.248,13.078,13.078,0,0,0,18,6.154a13.079,13.079,0,0,0,8.443-2.906A14.9,14.9,0,0,1,36,0a14.9,14.9,0,0,1,9.556,3.248A13.08,13.08,0,0,0,54,6.154a13.078,13.078,0,0,0,8.443-2.906,15.684,15.684,0,0,1,19.113,0A13.083,13.083,0,0,0,90,6.154c4.194,0,6.258-1.412,8.445-2.906A14.9,14.9,0,0,1,108,0V1.846a13.083,13.083,0,0,0-8.445,2.906A14.9,14.9,0,0,1,90,8" fill="#7f6aee"/>
</svg>
